# xmcd
# 
# Track frame offsets:
#     150
#     18065
#     37260
#     50047
#     68462
#     86260
#     101840
#     114837
#     125840
#     140285
#     180660
#     195042
#     216680
#     233092
#     253807
#     272140
#     288157
#     301472
# 
# Disc length: 4207
# 
# Revision: 2
# Processed by: cddbd v1.5.2PL0 Copyright (c) Steve Scherf et al.
# Submitted via: fre:ac v1.0.27
# 
DISCID=01106d12
DTITLE=Various Artist - Steve King and Johnnie Putnam Present Life After Dark (WGN Radio 720)
DYEAR=2000
DGENRE=Blues Rock
TTITLE0=Delbert McClinton - Better Off With The Blues
TTITLE1=Matthew and Gunnar Nelson - Garden Party
TTITLE2=BR5-49 - It'll Be Me
TTITLE3=Dolly Varden - Too Good To Believe
TTITLE4=Susan Tedeschi - Angel From Montgomery
TTITLE5=Preston Reed - Ladies Night
TTITLE6=Carll Giammarese and Bob Abrams of the Buckinghams - I'm A Loser
TTITLE7=Fred Eaglesmith - When, Exactly, Did We Become White Trash?
TTITLE8=Thrasher-Shiver - Be Honest
TTITLE9=Otis Clay - Amen Medley: Amen - This Little Light of Mine - Sittin' on the Dock of the Bay - A Change is Gonna Come
TTITLE10=Rick Danko - Twilight
TTITLE11=Brian Leighton of G.B. Leighton - The Most Important Night Of My Life
TTITLE12=John Mueller - Hey Buddy
TTITLE13=Robbie Fulks - I Just Want To Meet The Man
TTITLE14=Antje - Simply Being Cleopatra
TTITLE15=Muriel Anderson - Sukiyaki
TTITLE16=Bob Young w/ Steve King - Rainin'
TTITLE17=Matthew and Gunnar Nelson talk with Steve and Johnnie - Bonus Cut - The Garden Party Story
EXTD=
EXTT0=
EXTT1=
EXTT2=
EXTT3=
EXTT4=
EXTT5=
EXTT6=
EXTT7=
EXTT8=
EXTT9=
EXTT10=
EXTT11=
EXTT12=
EXTT13=
EXTT14=
EXTT15=
EXTT16=
EXTT17=
PLAYORDER=
